<svg xmlns="http://www.w3.org/2000/svg" width="544.205" height="307.582" viewBox="25.537 267.184 544.205 307.582">
  <path fill="#FFF" d="M368.181 415.052h47.86v95.721h-47.86v-95.721zm47.86-143.641h-47.86v95.721h47.86v-95.721zm-191.502 47.86h95.722v-47.86H176.679v95.721h47.86v47.86h-47.86v95.721h47.86v-95.661h95.781v-47.86h-95.781v-47.921zM57.147 267.184l-31.609 31.609 92.269 92.269-92.27 92.268 31.609 31.55 123.878-123.877L57.147 267.184zm478.486 0L411.755 391.002 535.633 514.88l31.609-31.609-92.269-92.268 92.269-92.269-31.609-31.55zm21.133 300.378c.297 2.381 1.904 3.453 4.821 3.453 2.56 0 3.869-.894 3.869-2.679 0-1.965-1.786-2.322-5.655-3.215-1.726-.357-3.333-.655-4.702-1.548-1.488-.952-2.322-2.619-2.322-4.821 0-4.108 2.857-6.43 8.155-6.43 5.001 0 7.858 2.5 8.037 6.727h-4.167c-.119-2.083-1.607-3.154-4.227-3.154-2.322 0-3.572.952-3.572 2.56 0 2.023 1.607 2.023 5.12 2.917 2.023.476 3.69.893 5 1.666 1.727.953 2.619 2.561 2.619 4.763 0 4.346-3.036 6.965-8.513 6.965-5.417 0-8.513-2.619-8.75-7.144h4.286v-.06zm-17.978-14.643h4.345v21.251h-4.345v-21.251zm-19.585 17.382c4.048 0 5.774-1.964 5.774-6.786 0-4.703-1.607-6.905-5.239-6.905h-4.048v13.691h3.513zm-7.798-17.382h8.334c6.489 0 9.703 3.452 9.703 10.655 0 3.988-1.25 6.965-3.452 8.691-2.084 1.666-4.346 1.904-7.441 1.904h-7.144v-21.25zm-14.644 0h4.346v21.251h-4.346v-21.251zm-23.037 0h4.346v17.322h10.357v3.929h-14.763v-21.251h.06zm-21.193 13.274h5.894l-2.977-9.048-2.917 9.048zm5.417-13.274l7.68 21.251h-4.584l-1.429-4.346H451.4l-1.369 4.346h-4.584l7.561-21.251h4.94zm-32.382 14.643c.298 2.381 1.905 3.453 4.821 3.453 2.561 0 3.87-.894 3.87-2.679 0-1.965-1.786-2.322-5.655-3.215-1.727-.357-3.334-.655-4.703-1.548-1.488-.952-2.321-2.619-2.321-4.821 0-4.108 2.857-6.43 8.155-6.43 5 0 7.857 2.5 8.036 6.727h-4.167c-.119-2.083-1.607-3.154-4.227-3.154-2.321 0-3.571.952-3.571 2.56 0 2.023 1.607 2.023 5.119 2.917 2.024.476 3.69.893 5 1.666 1.727.953 2.62 2.561 2.62 4.763 0 4.346-3.036 6.965-8.513 6.965-5.417 0-8.513-2.619-8.751-7.144h4.286v-.06zm-22.502-10.893h-6.31v-3.81h16.906v3.81h-6.251v17.441h-4.346v-17.441h.001zm-23.454 9.524h5.894l-2.977-9.048-2.917 9.048zm5.476-13.274l7.68 21.251h-4.644l-1.429-4.346h-8.215l-1.369 4.346h-4.583l7.56-21.251h5zm-38.455 0h4.346v8.69l8.274-8.69h5.477l-8.453 8.572 9.228 12.619h-5.357l-6.846-9.703-2.263 2.263v7.5h-4.346v-21.251h-.06zm-31.787 9.286c2.202 0 3.273-.833 3.273-2.798 0-1.846-1.012-2.798-3.036-2.798h-5.357v5.596h5.12zm-9.524-9.286h10.298c4.584 0 6.846 1.904 6.846 6.012 0 2.62-1.131 4.346-3.155 5.001 2.024.714 2.56 2.083 2.619 4.643l.119 2.501c0 1.25 0 1.964.834 2.381v.654h-4.763c-.298-.595-.476-1.488-.476-2.679l-.06-2.262c-.119-2.5-.715-3.394-3.155-3.394h-4.644v8.274h-4.345v-21.132h-.118zm-25.181 0h15.418v3.69h-11.132v4.524h10.238v3.631h-10.179v5.477h11.667v3.929h-15.953v-21.251h-.059zm-19.525 17.382c4.048 0 5.774-1.964 5.774-6.786 0-4.703-1.607-6.905-5.238-6.905h-4.048v13.691h3.512zm-7.798-17.382h8.334c6.488 0 9.703 3.452 9.703 10.655 0 3.988-1.25 6.965-3.453 8.691-2.083 1.666-4.346 1.904-7.44 1.904h-7.144v-21.25zm-27.741 0h4.584l8.631 14.584v-14.584h4.286v21.251h-4.464l-8.691-14.584v14.584h-4.286v-21.251h-.06zm-25.121 0h15.418v3.69H204.24v4.524h10.18v3.631h-10.18v5.477h11.668v3.929h-15.954v-21.251zm-23.275 0h14.822v3.69h-10.536v4.822h9.227v3.69h-9.227v9.048h-4.286v-21.25z"/>
</svg>
